HIERARCHY
ROOT Hips
{
	OFFSET 0.00000 0.00000 0.00000
	CHANNELS 6 Xposition Yposition Zposition Zrotation Yrotation Xrotation 
	JOINT LHipJoint
	{
		OFFSET 0 0 0
		CHANNELS 3 Zrotation Yrotation Xrotation
		JOINT LeftUpLeg
		{
			OFFSET 1.58161 -1.81893 0.78828
			CHANNELS 3 Zrotation Yrotation Xrotation
			JOINT LeftLeg
			{
				OFFSET 2.53374 -6.96141 0.00000
				CHANNELS 3 Zrotation Yrotation Xrotation
				JOINT LeftFoot
				{
					OFFSET 2.63509 -7.23986 0.00000
					CHANNELS 3 Zrotation Yrotation Xrotation
					JOINT LeftToeBase
					{
						OFFSET 0.14115 -0.38781 2.05350
						CHANNELS 3 Zrotation Yrotation Xrotation
						End Site
						{
							OFFSET 0.00000 -0.00000 1.05543
						}
					}
				}
			}
		}
	}
	JOINT RHipJoint
	{
		OFFSET 0 0 0
		CHANNELS 3 Zrotation Yrotation Xrotation
		JOINT RightUpLeg
		{
			OFFSET -1.11138 -1.81893 0.78828
			CHANNELS 3 Zrotation Yrotation Xrotation
			JOINT RightLeg
			{
				OFFSET -2.58392 -7.09926 0.00000
				CHANNELS 3 Zrotation Yrotation Xrotation
				JOINT RightFoot
				{
					OFFSET -2.66423 -7.31992 0.00000
					CHANNELS 3 Zrotation Yrotation Xrotation
					JOINT RightToeBase
					{
						OFFSET -0.18831 -0.51739 2.12114
						CHANNELS 3 Zrotation Yrotation Xrotation
						End Site
						{
							OFFSET -0.00000 -0.00000 1.09845
						}
					}
				}
			}
		}
	}
	JOINT LowerBack
	{
		OFFSET 0 0 0
		CHANNELS 3 Zrotation Yrotation Xrotation
		JOINT Spine
		{
			OFFSET -0.01511 1.97958 -0.08829
			CHANNELS 3 Zrotation Yrotation Xrotation
			JOINT Spine1
			{
				OFFSET 0.08344 1.97334 -0.04330
				CHANNELS 3 Zrotation Yrotation Xrotation
				JOINT Neck
				{
					OFFSET 0 0 0
					CHANNELS 3 Zrotation Yrotation Xrotation
					JOINT Neck1
					{
						OFFSET 0.00559 1.76246 0.31246
						CHANNELS 3 Zrotation Yrotation Xrotation
						JOINT Head
						{
							OFFSET -0.07011 1.80354 -0.30524
							CHANNELS 3 Zrotation Yrotation Xrotation
							End Site
							{
								OFFSET -0.02385 1.83547 -0.13906
							}
						}
					}
				}
				JOINT LeftShoulder
				{
					OFFSET 0 0 0
					CHANNELS 3 Zrotation Yrotation Xrotation
					JOINT LeftArm
					{
						OFFSET 3.20667 1.30156 -0.60240
						CHANNELS 3 Zrotation Yrotation Xrotation
						JOINT LeftForeArm
						{
							OFFSET 4.95663 -0.00000 0.00000
							CHANNELS 3 Zrotation Yrotation Xrotation
							JOINT LeftHand
							{
								OFFSET 3.38177 -0.00000 0.00000
								CHANNELS 3 Zrotation Yrotation Xrotation
								JOINT LeftFingerBase
								{
									OFFSET 0 0 0
									CHANNELS 3 Zrotation Yrotation Xrotation
									JOINT LeftHandIndex1
									{
										OFFSET 0.66291 -0.00000 0.00000
										CHANNELS 3 Zrotation Yrotation Xrotation
										End Site
										{
											OFFSET 0.53445 -0.00000 0.00000
										}
									}
								}
								JOINT LThumb
								{
									OFFSET 0 0 0
									CHANNELS 3 Zrotation Yrotation Xrotation
									End Site
									{
										OFFSET 0.54261 -0.00000 0.54261
									}
								}
							}
						}
					}
				}
				JOINT RightShoulder
				{
					OFFSET 0 0 0
					CHANNELS 3 Zrotation Yrotation Xrotation
					JOINT RightArm
					{
						OFFSET -3.06877 1.34672 -0.60964
						CHANNELS 3 Zrotation Yrotation Xrotation
						JOINT RightForeArm
						{
							OFFSET -5.08365 -0.00000 0.00000
							CHANNELS 3 Zrotation Yrotation Xrotation
							JOINT RightHand
							{
								OFFSET -3.35984 -0.00000 0.00000
								CHANNELS 3 Zrotation Yrotation Xrotation
								JOINT RightFingerBase
								{
									OFFSET 0 0 0
									CHANNELS 3 Zrotation Yrotation Xrotation
									JOINT RightHandIndex1
									{
										OFFSET -0.82076 -0.00000 0.00000
										CHANNELS 3 Zrotation Yrotation Xrotation
										End Site
										{
											OFFSET -0.66172 -0.00000 0.00000
										}
									}
								}
								JOINT RThumb
								{
									OFFSET 0 0 0
									CHANNELS 3 Zrotation Yrotation Xrotation
									End Site
									{
										OFFSET -0.67182 -0.00000 0.67182
									}
								}
							}
						}
					}
				}
			}
		}
	}
}
MOTION
Frames: 8
Frame Time: .0083333
-11.9219 18.0922 6.4962 0 0 0 0 0 0 -21 0 0 0 0 0 0 0 0 0 0 0 0 0 0 21 0 0 0 0 0 0 0 0 0 0 0 0 0 0 0 0 0 0 0 0 0 0 -16 0 0 21 0 0 11 0 0 0 -8 0 0 0 0 0 0 0 0 0 0 0 0 0 0 0 0 0 0 0 0 8 0 0 0 0 0 0 0 0 0 0 0 0 0 0 0 0 0
-11.9219 18.0922 6.4962 -105.0180 85.0247 -89.2714 0.0000 0.0000 0.0000 -5.1115 -7.5528 -26.0840 1.1691 6.8635 19.3115 0.1067 -3.4689 -5.9290 0.4829 -4.4559 -12.3630 0.0000 0.0000 0.0000 13.8625 9.2378 -25.0070 -0.9952 -6.3487 17.7997 0.1123 -6.7567 -5.9160 -0.0192 -0.8940 2.4571 -1.2807 1.6070 3.6142 4.7326 2.2123 3.5771 5.5663 1.0862 1.4258 1.4386 -2.1803 -12.0088 -2.8698 0.0596 42.3646 -1.3458 0.6038 17.6617 0.0000 0.0000 0.0000 -98.4406 -19.9717 84.3707 21.7064 -32.6436 -6.4267 -0.0000 0.0000 -54.7499 16.7192 62.5228 14.9222 -7.1250 0.0000 -0.0000 167.1619 4.0624 12.2128 0.0000 0.0000 0.0000 99.1165 18.6834 46.0588 -17.2215 27.1489 -4.1879 0.0000 -0.0000 -48.5137 -29.9843 -13.5970 7.7247 7.1250 -0.0000 -0.0000 -2.4359 -45.5677 0.0342
-11.9258 18.0934 6.4957 -104.0490 85.0445 -88.2582 0.0000 0.0000 0.0000 -5.1164 -7.5259 -26.1566 1.1741 6.8776 19.3532 0.1053 -3.3477 -5.8732 0.4172 -4.1458 -11.4871 0.0000 0.0000 0.0000 13.8404 9.3026 -25.0384 -0.9903 -6.3335 17.7553 0.1125 -6.7357 -5.8503 -0.0128 -0.7297 2.0052 -1.3134 1.6078 3.5863 4.7055 2.2112 3.5703 5.5572 1.0845 1.4342 1.4872 -2.1807 -12.0088 -2.8832 0.0529 42.3977 -1.3627 0.6075 17.6804 -0.0000 -0.0000 0.0000 -98.4948 -20.0157 84.2926 21.6405 -32.5683 -6.3912 -0.0000 0.0000 -54.6957 16.0283 62.2020 14.2586 -7.1250 0.0000 -0.0000 167.0151 3.6908 12.4518 -0.0000 -0.0000 0.0000 99.0423 18.6680 46.0871 -17.2962 27.2466 -4.2220 0.0000 -0.0000 -48.5687 -30.1679 -13.7316 7.8559 7.1250 -0.0000 -0.0000 -2.5988 -45.7459 0.0479
-11.9296 18.0949 6.4949 -103.7380 85.1071 -87.9026 0.0000 0.0000 0.0000 -5.1806 -7.5371 -26.1877 1.1707 6.8680 19.3248 0.1035 -3.1999 -5.8028 0.3455 -3.7770 -10.4500 0.0000 0.0000 0.0000 13.7475 9.3615 -25.0656 -0.9867 -6.3224 17.7228 0.1143 -6.7847 -5.8861 -0.0177 -0.8600 2.3637 -1.3426 1.6126 3.5646 4.6468 2.2149 3.5491 5.5121 1.0857 1.4251 1.5382 -2.1839 -11.9866 -2.8806 0.0372 42.4246 -1.3737 0.6111 17.6893 -0.0000 -0.0000 0.0000 -98.5222 -20.0382 84.3371 21.5871 -32.5072 -6.3625 -0.0000 0.0000 -54.6278 15.1302 62.0229 13.4301 -7.1250 0.0000 -0.0000 166.7768 3.4428 12.7553 -0.0000 -0.0000 0.0000 98.9461 18.6250 46.1604 -17.4030 27.3859 -4.2710 0.0000 -0.0000 -48.8333 -30.5034 -13.7248 7.9570 7.1250 -0.0000 -0.0000 -2.9177 -45.7855 0.0566
-11.9339 18.0965 6.4942 -103.8700 85.0762 -88.0017 0.0000 0.0000 0.0000 -5.1096 -7.6065 -26.2020 1.1685 6.8619 19.3068 0.1055 -3.2173 -5.8577 0.3539 -3.8219 -10.5762 0.0000 0.0000 0.0000 13.7391 9.4630 -25.0687 -0.9853 -6.3181 17.7101 0.1192 -6.9001 -5.9355 -0.0266 -1.0531 2.8948 -1.2802 1.6021 3.5642 4.6202 2.2018 3.5338 5.4484 1.0807 1.4139 1.5827 -2.1756 -11.9878 -2.8654 0.0320 42.4420 -1.3760 0.6185 17.6993 -0.0000 -0.0000 0.0000 -98.5169 -20.0561 84.4470 21.6062 -32.5291 -6.3728 -0.0000 0.0000 -54.6649 15.1248 62.1818 13.4442 -7.1250 0.0000 -0.0000 166.7484 3.5960 12.7459 -0.0000 -0.0000 0.0000 98.9429 18.6761 46.0793 -17.4213 27.4098 -4.2795 0.0000 -0.0000 -48.8320 -30.6876 -13.7580 8.0336 7.1250 -0.0000 -0.0000 -3.0902 -45.8494 0.0648
-11.9385 18.0958 6.4924 -103.7560 85.1033 -87.8872 0.0000 0.0000 0.0000 -5.1203 -7.6262 -26.1908 1.1643 6.8499 19.2715 0.1040 -3.3102 -5.8345 0.3878 -3.9990 -11.0737 0.0000 0.0000 0.0000 13.7162 9.4380 -25.0976 -0.9855 -6.3189 17.7125 0.1184 -6.8542 -5.8555 -0.0198 -0.9076 2.4945 -1.3162 1.5720 3.6060 4.6009 2.1608 3.5293 5.4485 1.0598 1.3896 1.6355 -2.1517 -12.0297 -2.8905 0.0678 42.4988 -1.3924 0.6389 17.7452 0.0000 0.0000 0.0000 -98.5183 -20.0656 84.4226 21.6386 -32.5662 -6.3902 -0.0000 0.0000 -54.6387 15.3486 62.4922 13.6825 -7.1250 0.0000 -0.0000 166.7621 3.9143 12.6519 0.0000 0.0000 0.0000 98.9480 18.7016 46.0223 -17.4698 27.4729 -4.3018 0.0000 -0.0000 -48.7475 -30.8882 -13.8654 8.1581 7.1250 -0.0000 -0.0000 -3.2734 -46.0006 0.0809
-11.9426 18.0947 6.4916 -102.9640 85.2424 -87.1448 0.0000 0.0000 0.0000 -5.2759 -7.5861 -26.1346 1.1622 6.8440 19.2540 0.1017 -3.3387 -5.7805 0.3937 -4.0288 -11.1577 0.0000 0.0000 0.0000 13.5753 9.4497 -25.0694 -0.9868 -6.3227 17.7237 0.1149 -6.7754 -5.8325 -0.0174 -0.8505 2.3375 -1.5116 1.5583 3.6869 4.5483 2.1366 3.5465 5.5032 1.0438 1.3601 1.7602 -2.1221 -12.0607 -2.9771 0.1100 42.5235 -1.4491 0.6636 17.7688 -0.0000 -0.0000 0.0000 -98.5096 -20.1077 84.3958 21.6556 -32.5856 -6.3993 -0.0000 0.0000 -54.6546 15.4842 62.5149 13.8074 -7.1250 0.0000 -0.0000 166.7988 3.9471 12.6066 -0.0000 -0.0000 0.0000 98.9313 18.6840 46.0341 -17.5480 27.5745 -4.3380 0.0000 -0.0000 -48.7595 -31.2072 -13.8490 8.2507 7.1250 -0.0000 -0.0000 -3.5789 -46.0279 0.0909
-11.9458 18.0955 6.4933 -101.3020 85.2719 -85.4984 0.0000 0.0000 0.0000 -5.3007 -7.4991 -26.1143 1.1627 6.8454 19.2582 0.1035 -3.3153 -5.8212 0.4158 -4.1390 -11.4681 0.0000 0.0000 0.0000 13.5238 9.6216 -25.0514 -0.9904 -6.3339 17.7565 0.1150 -6.7970 -5.8816 -0.0245 -1.0112 2.7795 -1.5898 1.5673 3.6964 4.5049 2.1454 3.5740 5.5022 1.0458 1.3813 1.8430 -2.0889 -12.0730 -3.0046 0.1388 42.5033 -1.4724 0.6820 17.7607 0.0000 0.0000 0.0000 -98.4804 -20.1810 84.4343 21.6387 -32.5662 -6.3903 -0.0000 0.0000 -54.8585 15.8001 62.1033 14.0411 -7.1250 0.0000 -0.0000 166.9644 3.5757 12.5315 0.0000 0.0000 0.0000 98.9867 18.7254 45.9199 -17.5319 27.5536 -4.3305 0.0000 -0.0000 -48.6857 -31.4911 -13.6848 8.2462 7.1250 -0.0000 -0.0000 -3.8601 -45.8805 0.0840
